# xmcd CD database file
#
# Track frame offsets:
#	150
#	17340
#	33235
#	50423
#
# Disc length: 882 seconds
#
# Revision: 2
# Processed by: cddbd v1.5.1PL0 Copyright (c) Steve Scherf et al.
# Submitted via: CDex 1.51
#
DISCID=22037004
DTITLE=しあわせシスターズ - しあわせソウのオコジョさん
DYEAR=1900
DGENRE=Anime
TTITLE0=あのコのHappy Face
TTITLE1=眠くなるまで
TTITLE2=あのコのHappy Face(off vocal)
TTITLE3=眠くなるまで(off vocal)
EXTD=
EXTT0=
EXTT1=
EXTT2=
EXTT3=
PLAYORDER=
